SplineFontDB: 3.0
FontName: Awoof-Mono-Regular
FullName: Awoof Mono
FamilyName: Awoof
Weight: Regular
Copyright: 
Version: 001.000
ItalicAngle: 0
UnderlinePosition: -153.6
UnderlineWidth: 61.44
Ascent: 819
Descent: 205
InvalidEm: 0
sfntRevision: 0x00010000
LayerCount: 2
Layer: 0 1 "Back" 1
Layer: 1 1 "Fore" 0
XUID: [1021 740 1079781356 11858757]
StyleMap: 0x0040
FSType: 0
OS2Version: 4
OS2_WeightWidthSlopeOnly: 0
OS2_UseTypoMetrics: 0
CreationTime: 1513646632
ModificationTime: 1514009815
PfmFamily: 17
TTFWeight: 400
TTFWidth: 5
LineGap: 92
VLineGap: 0
Panose: 2 0 5 3 0 0 0 0 0 0
OS2TypoAscent: 819
OS2TypoAOffset: 0
OS2TypoDescent: -205
OS2TypoDOffset: 0
OS2TypoLinegap: 92
OS2WinAscent: 737
OS2WinAOffset: 0
OS2WinDescent: 25
OS2WinDOffset: 0
HheadAscent: 737
HheadAOffset: 0
HheadDescent: -25
HheadDOffset: 0
OS2SubXSize: 666
OS2SubYSize: 717
OS2SubXOff: 0
OS2SubYOff: 143
OS2SupXSize: 666
OS2SupYSize: 717
OS2SupXOff: 0
OS2SupYOff: 492
OS2StrikeYSize: 50
OS2StrikeYPos: 264
OS2CapHeight: 666
OS2XHeight: 436
OS2Vendor: 'CLGR'
OS2CodePages: 00000001.00000000
OS2UnicodeRanges: 00000003.00000000.00000000.00000000
MarkAttachClasses: 1
DEI: 91125
TtTable: fpgm
PUSHB_1
 0
FDEF
PUSHB_1
 0
SZP0
MPPEM
PUSHB_1
 42
LT
IF
PUSHB_1
 74
SROUND
EIF
PUSHB_1
 0
SWAP
MIAP[rnd]
RTG
PUSHB_1
 6
CALL
IF
RTDG
EIF
MPPEM
PUSHB_1
 42
LT
IF
RDTG
EIF
DUP
MDRP[rp0,rnd,grey]
PUSHB_1
 1
SZP0
MDAP[no-rnd]
RTG
ENDF
PUSHB_1
 1
FDEF
DUP
MDRP[rp0,min,white]
PUSHB_1
 12
CALL
ENDF
PUSHB_1
 2
FDEF
MPPEM
GT
IF
RCVT
SWAP
EIF
POP
ENDF
PUSHB_1
 3
FDEF
ROUND[Black]
RTG
DUP
PUSHB_1
 64
LT
IF
POP
PUSHB_1
 64
EIF
ENDF
PUSHB_1
 4
FDEF
PUSHB_1
 6
CALL
IF
POP
SWAP
POP
ROFF
IF
MDRP[rp0,min,rnd,black]
ELSE
MDRP[min,rnd,black]
EIF
ELSE
MPPEM
GT
IF
IF
MIRP[rp0,min,rnd,black]
ELSE
MIRP[min,rnd,black]
EIF
ELSE
SWAP
POP
PUSHB_1
 5
CALL
IF
PUSHB_1
 70
SROUND
EIF
IF
MDRP[rp0,min,rnd,black]
ELSE
MDRP[min,rnd,black]
EIF
EIF
EIF
RTG
ENDF
PUSHB_1
 5
FDEF
GFV
NOT
AND
ENDF
PUSHB_1
 6
FDEF
PUSHB_2
 34
 1
GETINFO
LT
IF
PUSHB_1
 32

StartChar: .notdef
Encoding: 65536 -1 0
Width: 372
Flags: W
LayerCount: 2
Fore
SplineSet
34 0 m 1,0,-1
 34 682 l 1,1,-1
 305 682 l 1,2,-1
 305 0 l 1,3,-1
 34 0 l 1,0,-1
68 34 m 1,4,-1
 271 34 l 1,5,-1
 271 648 l 1,6,-1
 68 648 l 1,7,-1
 68 34 l 1,4,-1
EndSplineSet
Validated: 1
EndChar

StartChar: exclam
Encoding: 33 33 3
Width: 525
Flags: W
LayerCount: 2
Fore
SplineSet
198 231 m 1,0,-1
 328 231 l 1,1,-1
 328 102 l 1,2,-1
 198 102 l 5,3,-1
 198 231 l 1,0,-1
200 691 m 1,4,-1
 326 691 l 1,5,-1
 326 281 l 1,6,-1
 200 281 l 1,7,-1
 200 691 l 1,4,-1
EndSplineSet
Validated: 1
EndChar

StartChar: quotedbl
Encoding: 34 34 4
Width: 525
Flags: W
LayerCount: 2
Fore
SplineSet
286 692 m 5,0,-1
 364 692 l 5,1,-1
 364 512 l 5,2,-1
 286 512 l 5,3,-1
 286 692 l 5,0,-1
160 692 m 5,4,-1
 236 692 l 5,5,-1
 236 512 l 5,6,-1
 160 512 l 5,7,-1
 160 692 l 5,4,-1
EndSplineSet
Validated: 1
EndChar

StartChar: numbersign
Encoding: 35 35 5
Width: 525
Flags: W
LayerCount: 2
Fore
SplineSet
296 314 m 1,0,-1
 296 474 l 1,1,-1
 228 474 l 1,2,-1
 228 314 l 1,3,-1
 296 314 l 1,0,-1
156 548 m 1,4,-1
 156 640 l 1,5,-1
 228 640 l 1,6,-1
 228 548 l 1,7,-1
 296 548 l 1,8,-1
 296 640 l 1,9,-1
 368 640 l 1,10,-1
 368 548 l 1,11,-1
 462 548 l 1,12,-1
 462 474 l 1,13,-1
 368 474 l 1,14,-1
 368 314 l 1,15,-1
 462 314 l 1,16,-1
 462 242 l 1,17,-1
 368 242 l 1,18,-1
 368 150 l 1,19,-1
 296 150 l 1,20,-1
 296 242 l 1,21,-1
 228 242 l 1,22,-1
 228 150 l 1,23,-1
 156 150 l 1,24,-1
 156 242 l 1,25,-1
 64 242 l 1,26,-1
 64 314 l 1,27,-1
 156 314 l 1,28,-1
 156 474 l 1,29,-1
 64 474 l 1,30,-1
 64 548 l 1,31,-1
 156 548 l 1,4,-1
EndSplineSet
Validated: 1
EndChar

StartChar: dollar
Encoding: 36 36 6
Width: 525
Flags: W
LayerCount: 2
Fore
SplineSet
228 592 m 1,0,-1
 228 672 l 1,1,-1
 298 672 l 1,2,-1
 298 592 l 1,3,-1
 404 592 l 1,4,-1
 438 557 l 1,5,-1
 438 487 l 1,6,-1
 368 487 l 1,7,-1
 368 522 l 1,8,-1
 298 522 l 1,9,-1
 298 432 l 1,10,-1
 404 432 l 1,11,-1
 438 397 l 1,12,-1
 438 217 l 1,13,-1
 404 182 l 1,14,-1
 298 182 l 1,15,-1
 298 103 l 1,16,-1
 228 103 l 1,17,-1
 228 183 l 1,18,-1
 124 183 l 1,19,-1
 88 217 l 1,20,-1
 88 287 l 1,21,-1
 158 287 l 1,22,-1
 158 252 l 1,23,-1
 228 252 l 1,24,-1
 228 362 l 1,25,-1
 124 362 l 1,26,-1
 88 397 l 1,27,-1
 88 557 l 1,28,-1
 124 592 l 5,29,-1
 228 592 l 1,0,-1
158 432 m 1,30,-1
 228 432 l 1,31,-1
 228 522 l 1,32,-1
 158 522 l 1,33,-1
 158 432 l 1,30,-1
298 252 m 1,34,-1
 368 252 l 1,35,-1
 368 362 l 1,36,-1
 298 362 l 1,37,-1
 298 252 l 1,34,-1
EndSplineSet
Validated: 1
EndChar

StartChar: percent
Encoding: 37 37 7
Width: 525
Flags: W
LayerCount: 2
Fore
SplineSet
50 627 m 1,0,-1
 173 627 l 1,1,-1
 224 584 l 1,2,-1
 224 474 l 1,3,-1
 173 428 l 1,4,-1
 50 428 l 1,5,-1
 4 474 l 1,6,-1
 4 584 l 1,7,-1
 50 627 l 1,0,-1
145 568 m 1,8,-1
 76 568 l 1,9,-1
 76 500 l 1,10,-1
 145 500 l 1,11,-1
 145 568 l 1,8,-1
350 360 m 1,12,-1
 472 360 l 1,13,-1
 520 314 l 1,14,-1
 520 208 l 1,15,-1
 472 162 l 1,16,-1
 350 162 l 1,17,-1
 299 208 l 5,18,-1
 299 314 l 1,19,-1
 350 360 l 1,12,-1
448 288 m 1,20,-1
 378 288 l 1,21,-1
 378 233 l 1,22,-1
 448 233 l 1,23,-1
 448 288 l 1,20,-1
76 162 m 1,24,-1
 4 162 l 1,25,-1
 4 233 l 1,26,-1
 448 627 l 1,27,-1
 520 627 l 1,28,-1
 520 563 l 1,29,-1
 76 162 l 1,24,-1
EndSplineSet
Validated: 1
EndChar

StartChar: ampersand
Encoding: 38 38 8
Width: 525
Flags: W
LayerCount: 2
Fore
SplineSet
228 738 m 1,0,-1
 298 738 l 1,1,-1
 298 620 l 1,2,-1
 228 620 l 1,3,-1
 228 738 l 1,0,-1
234 180 m 1,4,-1
 304 180 l 1,5,-1
 304 62 l 1,6,-1
 234 62 l 1,7,-1
 234 180 l 1,4,-1
405 552 m 1,8,-1
 405 482 l 1,9,-1
 333 482 l 1,10,-1
 333 528 l 1,11,-1
 190 528 l 1,12,-1
 190 458 l 1,13,-1
 359 458 l 1,14,-1
 359 388 l 1,15,-1
 190 388 l 1,16,-1
 190 274 l 1,17,-1
 333 274 l 1,18,-1
 333 320 l 1,19,-1
 405 320 l 1,20,-1
 405 248 l 1,21,-1
 359 202 l 1,22,-1
 166 202 l 5,23,-1
 120 248 l 5,24,-1
 120 415 l 5,25,-1
 153 415 l 1,26,-1
 153 434 l 1,27,-1
 120 434 l 1,28,-1
 120 552 l 1,29,-1
 166 600 l 1,30,-1
 359 600 l 1,31,-1
 405 552 l 1,8,-1
EndSplineSet
Validated: 1
EndChar

StartChar: quotesingle
Encoding: 39 39 9
Width: 525
Flags: W
LayerCount: 2
Fore
SplineSet
226 686 m 1,0,-1
 298 686 l 1,1,-1
 298 520 l 5,2,-1
 226 520 l 1,3,-1
 226 686 l 1,0,-1
EndSplineSet
Validated: 1
EndChar

StartChar: parenleft
Encoding: 40 40 10
Width: 525
Flags: W
LayerCount: 2
Fore
SplineSet
368 28 m 1,0,-1
 296 28 l 1,1,-1
 156 190 l 1,2,-1
 156 492 l 5,3,-1
 296 658 l 1,4,-1
 368 658 l 1,5,-1
 228 492 l 1,6,-1
 228 192 l 1,7,-1
 368 28 l 1,0,-1
EndSplineSet
Validated: 1
EndChar

StartChar: parenright
Encoding: 41 41 11
Width: 525
Flags: W
LayerCount: 2
Fore
SplineSet
156 658 m 1,0,-1
 228 658 l 1,1,-1
 368 518 l 1,2,-1
 368 166 l 1,3,-1
 228 28 l 1,4,-1
 156 28 l 1,5,-1
 296 174 l 5,6,-1
 296 510 l 1,7,-1
 156 658 l 1,0,-1
EndSplineSet
Validated: 1
EndChar

StartChar: asterisk
Encoding: 42 42 12
Width: 525
Flags: W
LayerCount: 2
Fore
SplineSet
228 564 m 1,0,-1
 228 658 l 1,1,-1
 298 658 l 1,2,-1
 298 564 l 1,3,-1
 392 564 l 1,4,-1
 392 492 l 1,5,-1
 298 492 l 1,6,-1
 298 460 l 1,7,-1
 354 460 l 1,8,-1
 354 354 l 1,9,-1
 288 354 l 1,10,-1
 288 442 l 1,11,-1
 236 442 l 1,12,-1
 236 354 l 1,13,-1
 172 354 l 1,14,-1
 172 460 l 1,15,-1
 228 460 l 1,16,-1
 228 492 l 1,17,-1
 134 492 l 1,18,-1
 134 564 l 1,19,-1
 228 564 l 1,0,-1
EndSplineSet
Validated: 1
EndChar

StartChar: plus
Encoding: 43 43 13
Width: 525
Flags: W
LayerCount: 2
Fore
SplineSet
226 378 m 1,0,-1
 226 518 l 5,1,-1
 298 518 l 1,2,-1
 298 378 l 1,3,-1
 438 378 l 1,4,-1
 438 306 l 1,5,-1
 298 306 l 1,6,-1
 298 166 l 1,7,-1
 226 166 l 1,8,-1
 226 306 l 1,9,-1
 88 306 l 1,10,-1
 88 378 l 1,11,-1
 226 378 l 1,0,-1
EndSplineSet
Validated: 1
EndChar

StartChar: comma
Encoding: 44 44 14
Width: 525
Flags: W
LayerCount: 2
Fore
SplineSet
206 128 m 5,0,-1
 206 220 l 5,1,-1
 324 220 l 5,2,-1
 324 102 l 5,3,-1
 278 102 l 5,4,-1
 278 56 l 5,5,-1
 160 56 l 5,6,-1
 160 128 l 5,7,-1
 206 128 l 5,0,-1
EndSplineSet
Validated: 1
EndChar

StartChar: hyphen
Encoding: 45 45 15
Width: 525
Flags: W
LayerCount: 2
Fore
SplineSet
64 384 m 1,0,-1
 462 384 l 5,1,-1
 462 313 l 1,2,-1
 64 313 l 1,3,-1
 64 384 l 1,0,-1
EndSplineSet
Validated: 1
EndChar

StartChar: period
Encoding: 46 46 16
Width: 525
Flags: W
LayerCount: 2
Fore
SplineSet
140 226 m 5,0,-1
 258 226 l 5,1,-1
 258 108 l 5,2,-1
 140 108 l 5,3,-1
 140 226 l 5,0,-1
EndSplineSet
Validated: 1
EndChar

StartChar: slash
Encoding: 47 47 17
Width: 525
Flags: W
LayerCount: 2
Fore
SplineSet
182 198 m 1,0,-1
 182 104 l 1,1,-1
 110 104 l 1,2,-1
 110 224 l 1,3,-1
 156 224 l 1,4,-1
 156 316 l 1,5,-1
 202 316 l 1,6,-1
 202 410 l 1,7,-1
 250 410 l 1,8,-1
 250 504 l 1,9,-1
 298 504 l 1,10,-1
 298 598 l 1,11,-1
 344 598 l 1,12,-1
 344 692 l 5,13,-1
 416 692 l 1,14,-1
 416 572 l 1,15,-1
 370 572 l 1,16,-1
 370 480 l 1,17,-1
 322 480 l 1,18,-1
 322 386 l 1,19,-1
 276 386 l 1,20,-1
 276 292 l 1,21,-1
 228 292 l 1,22,-1
 228 198 l 1,23,-1
 182 198 l 1,0,-1
EndSplineSet
Validated: 1
EndChar

StartChar: zero
Encoding: 48 48 18
Width: 525
InSpiro: 1
Flags: W
LayerCount: 2
Fore
SplineSet
144 679 m 1
 381 679 l 1
 451 609 l 1
 451 187 l 1
 381 117 l 1
 144 117 l 1
 74 187 l 1
 74 609 l 1
 144 679 l 1
  Spiro
    144 679 v
    381 679 v
    451 609 v
    451 187 v
    381 117 v
    144 117 v
    74 187 v
    74 609 v
    0 0 z
  EndSpiro
379 574 m 1
 174 187 l 1
 339 187 l 1
 379 229 l 1
 379 574 l 1
  Spiro
    379 574 v
    174 187 v
    339 187 v
    379 229 v
    0 0 z
  EndSpiro
333 620 m 1
 192 620 l 1
 146 572 l 1
 146 268 l 1
 333 620 l 1
  Spiro
    333 620 v
    192 620 v
    146 572 v
    146 268 v
    0 0 z
  EndSpiro
EndSplineSet
Validated: 1
EndChar

StartChar: one
Encoding: 49 49 19
Width: 525
Flags: W
LayerCount: 2
Fore
SplineSet
167 679 m 1,0,-1
 307 679 l 1,1,-1
 307 189 l 1,2,-1
 451 189 l 1,3,-1
 451 117 l 1,4,-1
 74 117 l 1,5,-1
 74 189 l 1,6,-1
 218 189 l 1,7,-1
 218 610 l 1,8,-1
 192 610 l 1,9,-1
 192 565 l 1,10,-1
 121 565 l 1,11,-1
 121 634 l 1,12,-1
 167 679 l 1,0,-1
EndSplineSet
Validated: 1
EndChar

StartChar: two
Encoding: 50 50 20
Width: 525
Flags: W
LayerCount: 2
Fore
SplineSet
-118 536 m 1053,0,-1
123 189 m 1,1,-1
 451 189 l 1,2,-1
 451 117 l 1,3,-1
 74 117 l 1,4,-1
 74 236 l 1,5,-1
 379 456 l 1,6,-1
 379 566 l 1,7,-1
 333 610 l 1,8,-1
 192 610 l 1,9,-1
 146 568 l 1,10,-1
 146 523 l 1,11,-1
 74 523 l 1,12,-1
 74 590 l 1,13,-1
 167 679 l 1,14,-1
 358 679 l 1,15,-1
 451 589 l 1,16,-1
 451 432 l 1,17,-1
 123 189 l 1,1,-1
EndSplineSet
Validated: 1
EndChar

StartChar: three
Encoding: 51 51 21
Width: 525
Flags: W
LayerCount: 2
Fore
SplineSet
193 679 m 1,0,-1
 381 679 l 1,1,-1
 475 600 l 1,2,-1
 475 492 l 1,3,-1
 414 428 l 5,4,-1
 414 410 l 1,5,-1
 475 357 l 1,6,-1
 475 210 l 1,7,-1
 381 117 l 1,8,-1
 97 117 l 1,9,-1
 50 164 l 1,10,-1
 50 236 l 1,11,-1
 122 236 l 1,12,-1
 122 189 l 1,13,-1
 356 189 l 1,14,-1
 403 232 l 1,15,-1
 403 338 l 1,16,-1
 356 386 l 1,17,-1
 249 386 l 1,18,-1
 249 456 l 1,19,-1
 356 456 l 1,20,-1
 403 502 l 1,21,-1
 403 572 l 1,22,-1
 356 620 l 1,23,-1
 222 620 l 1,24,-1
 160 570 l 1,25,-1
 160 526 l 1,26,-1
 90 526 l 1,27,-1
 90 600 l 1,28,-1
 193 679 l 1,0,-1
EndSplineSet
Validated: 1
EndChar

StartChar: four
Encoding: 52 52 22
Width: 525
Flags: W
LayerCount: 2
Fore
SplineSet
404 679 m 1,0,-1
 404 412 l 1,1,-1
 450 412 l 1,2,3
 450 376 450 376 450 339 c 1,4,-1
 404 339 l 1,5,-1
 404 117 l 1,6,-1
 332 117 l 1,7,-1
 332 338 l 1,8,-1
 74 338 l 1,9,-1
 74 679 l 1,10,-1
 146 679 l 1,11,-1
 146 410 l 5,12,-1
 332 410 l 1,13,-1
 332 679 l 1,14,-1
 404 679 l 1,0,-1
EndSplineSet
Validated: 1
EndChar

StartChar: five
Encoding: 53 53 23
Width: 525
Flags: W
LayerCount: 2
Fore
SplineSet
74 390 m 1,0,-1
 74 685 l 1,1,-1
 451 685 l 1,2,-1
 451 613 l 1,3,-1
 146 613 l 1,4,-1
 146 464 l 1,5,-1
 358 464 l 1,6,-1
 451 369 l 1,7,-1
 451 213 l 1,8,-1
 358 123 l 1,9,-1
 121 123 l 1,10,-1
 74 170 l 1,11,-1
 74 241 l 1,12,-1
 146 241 l 1,13,-1
 146 195 l 1,14,-1
 333 195 l 1,15,-1
 379 237 l 1,16,-1
 379 344 l 1,17,-1
 333 390 l 1,18,-1
 74 390 l 1,0,-1
EndSplineSet
Validated: 1
EndChar

StartChar: six
Encoding: 54 54 24
Width: 525
Flags: W
LayerCount: 2
Fore
SplineSet
74 214 m 1,0,-1
 74 556 l 1,1,-1
 166 685 l 1,2,-1
 388 685 l 1,3,-1
 388 625 l 1,4,-1
 200 625 l 1,5,-1
 146 546 l 1,6,-1
 146 427 l 1,7,-1
 167 463 l 1,8,-1
 358 463 l 1,9,-1
 451 369 l 1,10,-1
 451 213 l 1,11,-1
 358 123 l 1,12,-1
 167 123 l 1,13,-1
 74 214 l 1,0,-1
146 344 m 1,14,-1
 146 237 l 1,15,-1
 192 195 l 1,16,-1
 333 195 l 1,17,-1
 379 237 l 1,18,-1
 379 344 l 1,19,-1
 333 390 l 1,20,-1
 192 390 l 1,21,-1
 146 344 l 1,14,-1
EndSplineSet
Validated: 1
EndChar

StartChar: seven
Encoding: 55 55 25
Width: 525
Flags: W
LayerCount: 2
Fore
SplineSet
74 613 m 1,0,-1
 74 685 l 1,1,-1
 451 685 l 1,2,-1
 451 612 l 1,3,-1
 403 463 l 1,4,-1
 451 463 l 1,5,-1
 451 390 l 1,6,-1
 381 390 l 1,7,-1
 334 240 l 1,8,-1
 334 123 l 1,9,-1
 264 123 l 1,10,-1
 264 272 l 1,11,-1
 306 390 l 1,12,-1
 167 390 l 1,13,-1
 167 463 l 1,14,-1
 333 463 l 1,15,-1
 379 613 l 1,16,-1
 74 613 l 1,0,-1
EndSplineSet
Validated: 1
EndChar

StartChar: eight
Encoding: 56 56 26
Width: 525
Flags: W
LayerCount: 2
Fore
SplineSet
356 387 m 1,0,-1
 169 387 l 1,1,-1
 122 340 l 1,2,-1
 122 235 l 1,3,-1
 169 193 l 1,4,-1
 356 193 l 1,5,-1
 402 235 l 1,6,-1
 402 340 l 1,7,-1
 356 387 l 1,0,-1
356 620 m 1,8,-1
 169 620 l 1,9,-1
 122 574 l 1,10,-1
 122 506 l 1,11,-1
 169 458 l 1,12,-1
 356 458 l 1,13,-1
 402 506 l 1,14,-1
 402 574 l 1,15,-1
 356 620 l 1,8,-1
51 599 m 1,16,-1
 144 680 l 1,17,-1
 381 680 l 1,18,-1
 474 599 l 1,19,-1
 474 481 l 1,20,-1
 427 433 l 1,21,-1
 427 412 l 1,22,-1
 474 365 l 1,23,-1
 474 211 l 1,24,-1
 381 121 l 1,25,-1
 144 121 l 1,26,-1
 51 211 l 1,27,-1
 51 365 l 1,28,-1
 97 412 l 1,29,-1
 97 433 l 1,30,-1
 51 481 l 1,31,-1
 51 599 l 1,16,-1
EndSplineSet
Validated: 1
EndChar

StartChar: nine
Encoding: 57 57 27
Width: 525
Flags: W
LayerCount: 2
Fore
SplineSet
332 620 m 1,0,-1
 193 620 l 1,1,-1
 146 574 l 1,2,-1
 146 506 l 1,3,-1
 193 458 l 1,4,-1
 332 458 l 1,5,-1
 379 506 l 1,6,-1
 379 574 l 1,7,-1
 332 620 l 1,0,-1
168 680 m 1,8,-1
 357 680 l 1,9,-1
 450 599 l 1,10,-1
 450 121 l 1,11,-1
 379 121 l 1,12,-1
 379 407 l 5,13,-1
 357 387 l 1,14,-1
 168 387 l 1,15,-1
 75 481 l 1,16,-1
 75 599 l 1,17,-1
 168 680 l 1,8,-1
EndSplineSet
Validated: 1
EndChar

StartChar: colon
Encoding: 58 58 28
Width: 525
Flags: W
LayerCount: 2
Fore
SplineSet
204 108 m 1,0,-1
 204 226 l 1,1,-1
 322 226 l 5,2,-1
 322 108 l 1,3,-1
 204 108 l 1,0,-1
204 340 m 1,4,-1
 204 458 l 1,5,-1
 322 458 l 1,6,-1
 322 340 l 1,7,-1
 204 340 l 1,4,-1
EndSplineSet
Validated: 1
EndChar

StartChar: semicolon
Encoding: 59 59 29
Width: 525
Flags: W
LayerCount: 2
Fore
SplineSet
226 134 m 1,0,-1
 226 226 l 1,1,-1
 344 226 l 1,2,-1
 344 108 l 1,3,-1
 298 62 l 5,4,-1
 180 62 l 1,5,-1
 180 134 l 1,6,-1
 226 134 l 1,0,-1
226 340 m 1,7,-1
 226 458 l 1,8,-1
 344 458 l 1,9,-1
 344 340 l 1,10,-1
 226 340 l 1,7,-1
EndSplineSet
Validated: 1
EndChar

StartChar: less
Encoding: 60 60 30
Width: 525
Flags: W
LayerCount: 2
Fore
SplineSet
320 552 m 1,0,-1
 392 552 l 1,1,-1
 204 340 l 1,2,-1
 204 320 l 1,3,-1
 392 108 l 1,4,-1
 320 108 l 1,5,-1
 134 294 l 5,6,-1
 134 366 l 1,7,-1
 320 552 l 1,0,-1
EndSplineSet
Validated: 1
EndChar

StartChar: equal
Encoding: 61 61 31
Width: 525
Flags: W
LayerCount: 2
Fore
SplineSet
88 202 m 1,0,-1
 88 274 l 1,1,-1
 438 274 l 1,2,-1
 438 202 l 1,3,-1
 88 202 l 1,0,-1
88 340 m 1,4,-1
 88 412 l 5,5,-1
 438 412 l 1,6,-1
 438 340 l 1,7,-1
 88 340 l 1,4,-1
EndSplineSet
Validated: 1
EndChar

StartChar: greater
Encoding: 62 62 32
Width: 525
Flags: W
LayerCount: 2
Fore
SplineSet
134 488 m 5,0,-1
 134 558 l 1,1,-1
 392 372 l 1,2,-1
 392 300 l 1,3,-1
 204 114 l 1,4,-1
 134 114 l 1,5,-1
 320 326 l 1,6,-1
 320 346 l 1,7,-1
 134 488 l 5,0,-1
EndSplineSet
Validated: 1
EndChar

StartChar: question
Encoding: 63 63 33
Width: 525
Flags: W
LayerCount: 2
Fore
SplineSet
226 114 m 1,0,-1
 226 232 l 1,1,-1
 298 232 l 1,2,-1
 298 114 l 1,3,-1
 226 114 l 1,0,-1
344 394 m 5,4,-1
 298 394 l 1,5,-1
 298 300 l 1,6,-1
 226 300 l 1,7,-1
 226 466 l 1,8,-1
 320 466 l 1,9,-1
 366 512 l 1,10,-1
 366 580 l 1,11,-1
 320 626 l 1,12,-1
 206 626 l 1,13,-1
 158 580 l 1,14,-1
 158 534 l 1,15,-1
 88 534 l 1,16,-1
 88 604 l 1,17,-1
 180 698 l 1,18,-1
 344 698 l 1,19,-1
 438 604 l 1,20,-1
 438 488 l 1,21,-1
 344 394 l 5,4,-1
EndSplineSet
Validated: 1
EndChar

StartChar: at
Encoding: 64 64 34
Width: 525
Flags: W
LayerCount: 2
Fore
SplineSet
380 466 m 1,0,-1
 380 278 l 1,1,-1
 448 278 l 1,2,-1
 448 464 l 1,3,-1
 402 512 l 1,4,-1
 354 558 l 1,5,-1
 168 558 l 1,6,-1
 74 464 l 1,7,-1
 74 254 l 1,8,-1
 122 208 l 1,9,-1
 334 208 l 1,10,-1
 334 136 l 1,11,-1
 96 136 l 1,12,-1
 4 230 l 1,13,-1
 4 490 l 1,14,-1
 142 628 l 1,15,-1
 380 628 l 1,16,-1
 520 490 l 1,17,-1
 520 254 l 1,18,-1
 472 208 l 1,19,-1
 354 208 l 5,20,-1
 316 243 l 1,21,-1
 316 285 l 1,22,-1
 286 254 l 1,23,-1
 168 254 l 1,24,-1
 122 300 l 1,25,-1
 122 420 l 1,26,-1
 216 512 l 1,27,-1
 334 512 l 1,28,-1
 380 466 l 1,0,-1
308 440 m 1,29,-1
 240 440 l 1,30,-1
 194 394 l 1,31,-1
 194 326 l 1,32,-1
 262 326 l 1,33,-1
 308 372 l 1,34,-1
 308 440 l 1,29,-1
EndSplineSet
Validated: 1
EndChar

StartChar: A
Encoding: 65 65 35
Width: 525
Flags: W
LayerCount: 2
Fore
SplineSet
332 620 m 5,0,-1
 192 620 l 1,1,-1
 146 574 l 1,2,-1
 146 412 l 1,3,-1
 378 412 l 1,4,-1
 378 574 l 1,5,-1
 332 620 l 5,0,-1
120 635 m 5,6,-1
 168 680 l 1,7,-1
 356 680 l 1,8,-1
 404 635 l 1,9,-1
 450 590 l 1,10,-1
 450 108 l 1,11,-1
 378 108 l 1,12,-1
 378 340 l 1,13,-1
 146 340 l 1,14,-1
 146 108 l 1,15,-1
 74 108 l 1,16,-1
 74 590 l 1,17,-1
 120 635 l 5,6,-1
EndSplineSet
Validated: 1
EndChar

StartChar: B
Encoding: 66 66 36
Width: 525
Flags: W
LayerCount: 2
Fore
SplineSet
332 388 m 1,0,-1
 146 388 l 1,1,-1
 146 180 l 1,2,-1
 332 180 l 1,3,-1
 378 226 l 1,4,-1
 378 340 l 1,5,-1
 332 388 l 1,0,-1
332 620 m 1,6,-1
 146 620 l 1,7,-1
 146 458 l 1,8,-1
 332 458 l 1,9,-1
 378 506 l 1,10,-1
 378 574 l 1,11,-1
 332 620 l 1,6,-1
74 108 m 1,12,-1
 74 680 l 1,13,-1
 356 680 l 1,14,-1
 450 593 l 1,15,-1
 450 482 l 1,16,-1
 404 434 l 5,17,-1
 404 412 l 1,18,-1
 450 366 l 1,19,-1
 450 202 l 1,20,-1
 356 108 l 1,21,-1
 74 108 l 1,12,-1
EndSplineSet
Validated: 1
EndChar

StartChar: C
Encoding: 67 67 37
Width: 525
Flags: W
LayerCount: 2
Fore
SplineSet
450 262 m 1,0,-1
 450 184 l 1,1,-1
 356 108 l 1,2,-1
 160 108 l 1,3,-1
 74 202 l 1,4,-1
 74 590 l 1,5,-1
 160 680 l 1,6,-1
 356 680 l 1,7,-1
 450 615 l 1,8,-1
 450 542 l 1,9,-1
 355 610 l 1,10,-1
 184 610 l 1,11,-1
 146 566 l 1,12,-1
 146 226 l 1,13,-1
 184 180 l 1,14,-1
 354 180 l 1,15,-1
 450 262 l 1,0,-1
EndSplineSet
Validated: 1
EndChar

StartChar: D
Encoding: 68 68 38
Width: 525
Flags: W
LayerCount: 2
Fore
SplineSet
332 620 m 5,0,-1
 146 620 l 1,1,-1
 146 192 l 1,2,-1
 332 192 l 1,3,-1
 378 238 l 1,4,-1
 378 574 l 1,5,-1
 332 620 l 5,0,-1
74 108 m 1,6,-1
 74 680 l 1,7,-1
 356 680 l 1,8,-1
 450 587 l 1,9,-1
 450 201 l 1,10,-1
 356 108 l 5,11,-1
 74 108 l 1,6,-1
EndSplineSet
Validated: 1
EndChar

StartChar: E
Encoding: 69 69 39
Width: 525
Flags: W
LayerCount: 2
Fore
SplineSet
110 108 m 1,0,-1
 110 680 l 1,1,-1
 414 680 l 1,2,-1
 414 608 l 1,3,-1
 180 608 l 1,4,-1
 180 458 l 1,5,-1
 366 458 l 1,6,-1
 366 388 l 1,7,-1
 180 388 l 1,8,-1
 180 180 l 1,9,-1
 414 180 l 1,10,-1
 414 108 l 1,11,-1
 110 108 l 1,0,-1
EndSplineSet
Validated: 1
EndChar

StartChar: F
Encoding: 70 70 40
Width: 525
Flags: W
LayerCount: 2
Fore
SplineSet
80 108 m 1,0,-1
 80 680 l 1,1,-1
 445 680 l 1,2,-1
 445 608 l 1,3,-1
 150 608 l 1,4,-1
 150 458 l 1,5,-1
 375 458 l 5,6,-1
 375 388 l 1,7,-1
 150 388 l 1,8,-1
 150 108 l 1,9,-1
 80 108 l 1,0,-1
EndSplineSet
Validated: 1
EndChar

StartChar: G
Encoding: 71 71 41
Width: 525
Flags: W
LayerCount: 2
Fore
SplineSet
168 108 m 1,0,-1
 74 202 l 1,1,-1
 74 592 l 1,2,-1
 168 685 l 1,3,-1
 356 685 l 1,4,-1
 450 595 l 1,5,-1
 450 528 l 1,6,-1
 377 528 l 1,7,-1
 377 572 l 1,8,-1
 332 617 l 1,9,-1
 192 617 l 1,10,-1
 146 567 l 1,11,12
 146 218 l 5,13,-1
 186 180 l 1,14,-1
 333 180 l 1,15,-1
 378 232 l 1,16,-1
 378 394 l 1,17,-1
 276 394 l 1,18,-1
 276 466 l 1,19,-1
 450 466 l 1,20,-1
 450 208 l 1,21,-1
 356 108 l 1,22,-1
 168 108 l 1,0,-1
EndSplineSet
Validated: 1
EndChar

StartChar: H
Encoding: 72 72 42
Width: 525
Flags: W
LayerCount: 2
Fore
SplineSet
74 114 m 1,0,-1
 74 685 l 1,1,-1
 146 685 l 1,2,-1
 146 466 l 1,3,-1
 378 466 l 1,4,-1
 378 685 l 1,5,-1
 450 685 l 1,6,-1
 450 114 l 1,7,-1
 378 114 l 1,8,-1
 378 394 l 1,9,-1
 146 394 l 1,10,-1
 146 114 l 1,11,-1
 74 114 l 1,0,-1
EndSplineSet
Validated: 1
EndChar

StartChar: I
Encoding: 73 73 43
Width: 525
Flags: W
LayerCount: 2
Fore
SplineSet
82 620 m 1,0,-1
 82 691 l 1,1,-1
 442 691 l 1,2,-1
 442 620 l 1,3,-1
 298 620 l 1,4,-1
 298 179 l 1,5,-1
 442 179 l 1,6,-1
 442 108 l 1,7,-1
 82 108 l 1,8,-1
 82 179 l 1,9,-1
 226 179 l 1,10,-1
 226 620 l 1,11,-1
 82 620 l 1,0,-1
EndSplineSet
Validated: 1
EndChar

StartChar: J
Encoding: 74 74 44
Width: 525
Flags: W
LayerCount: 2
Fore
SplineSet
168 609 m 1,0,-1
 168 681 l 1,1,-1
 450 681 l 1,2,-1
 450 609 l 1,3,-1
 356 609 l 1,4,-1
 356 155 l 1,5,-1
 308 108 l 1,6,-1
 120 108 l 1,7,-1
 74 155 l 5,8,-1
 74 226 l 1,9,-1
 146 226 l 1,10,-1
 146 180 l 1,11,-1
 276 180 l 1,12,-1
 276 609 l 1,13,-1
 168 609 l 1,0,-1
EndSplineSet
Validated: 1
EndChar

StartChar: K
Encoding: 75 75 45
Width: 525
Flags: W
LayerCount: 2
Fore
SplineSet
74 108 m 1,0,-1
 74 680 l 1,1,-1
 146 680 l 1,2,-1
 146 458 l 1,3,-1
 168 458 l 1,4,-1
 378 680 l 1,5,-1
 450 680 l 1,6,-1
 192 401 l 5,7,-1
 450 108 l 1,8,-1
 378 108 l 1,9,-1
 168 340 l 1,10,-1
 146 340 l 1,11,-1
 146 108 l 1,12,-1
 74 108 l 1,0,-1
EndSplineSet
Validated: 1
EndChar

StartChar: L
Encoding: 76 76 46
Width: 525
Flags: W
LayerCount: 2
Fore
SplineSet
74 108 m 5,0,-1
 74 680 l 1,1,-1
 146 680 l 1,2,-1
 146 180 l 5,3,-1
 450 180 l 5,4,-1
 450 108 l 5,5,-1
 74 108 l 5,0,-1
EndSplineSet
Validated: 1
EndChar

StartChar: M
Encoding: 77 77 47
Width: 525
Flags: W
LayerCount: 2
Fore
SplineSet
269 207 m 1049,0,-1
120 679 m 1,1,-1
 198 679 l 1,2,-1
 252 634 l 5,3,-1
 274 634 l 5,4,-1
 328 679 l 1,5,-1
 404 679 l 1,6,-1
 496 586 l 1,7,-1
 496 108 l 1,8,-1
 426 108 l 1,9,-1
 426 561 l 1,10,-1
 378 607 l 1,11,-1
 356 607 l 1,12,-1
 304 561 l 1,13,-1
 304 387 l 1,14,-1
 224 387 l 1,15,-1
 224 561 l 1,16,-1
 170 607 l 1,17,-1
 146 607 l 1,18,-1
 98 561 l 1,19,-1
 98 108 l 1,20,-1
 28 108 l 1,21,-1
 28 586 l 1,22,-1
 120 679 l 1,1,-1
EndSplineSet
Validated: 1
EndChar

StartChar: N
Encoding: 78 78 48
Width: 525
Flags: W
LayerCount: 2
Fore
SplineSet
50 108 m 1,0,-1
 50 680 l 1,1,-1
 162 680 l 1,2,-1
 383 211 l 1,3,-1
 402 211 l 1,4,-1
 402 680 l 1,5,-1
 474 680 l 1,6,-1
 474 108 l 1,7,-1
 370 108 l 1,8,-1
 144 583 l 1,9,-1
 122 583 l 1,10,-1
 122 108 l 5,11,-1
 50 108 l 1,0,-1
EndSplineSet
Validated: 1
EndChar

StartChar: O
Encoding: 79 79 49
Width: 525
Flags: WO
LayerCount: 2
Fore
SplineSet
337 620 m 1,0,-1
 188 620 l 1,1,-1
 140 574 l 1,2,-1
 140 233 l 1,3,-1
 188 187 l 1,4,-1
 337 187 l 1,5,-1
 385 233 l 1,6,-1
 385 574 l 1,7,-1
 337 620 l 1,0,-1
70 587 m 1,8,-1
 162 680 l 1,9,-1
 363 680 l 1,10,-1
 455 587 l 1,11,-1
 455 206 l 1,12,-1
 363 116 l 5,13,-1
 162 116 l 1,14,-1
 70 206 l 1,15,-1
 70 587 l 1,8,-1
EndSplineSet
EndChar

StartChar: P
Encoding: 80 80 50
Width: 525
Flags: W
LayerCount: 2
Fore
SplineSet
332 620 m 5,0,-1
 146 620 l 1,1,-1
 146 458 l 1,2,-1
 332 458 l 1,3,-1
 378 506 l 1,4,-1
 378 574 l 1,5,-1
 332 620 l 5,0,-1
74 108 m 1,6,-1
 74 680 l 1,7,-1
 356 680 l 1,8,-1
 450 593 l 1,9,-1
 450 482 l 1,10,-1
 356 388 l 5,11,-1
 146 388 l 1,12,-1
 146 108 l 1,13,-1
 74 108 l 1,6,-1
EndSplineSet
Validated: 1
EndChar

StartChar: Q
Encoding: 81 81 51
Width: 525
Flags: W
LayerCount: 2
Fore
SplineSet
70 587 m 1,0,-1
 162 680 l 1,1,-1
 363 680 l 1,2,-1
 455 587 l 1,3,-1
 455 213 l 1,4,-1
 422 179 l 1,5,-1
 485 179 l 1,6,-1
 485 116 l 1,7,-1
 384 116 l 5,8,-1
 384 141 l 1,9,-1
 362 116 l 1,10,-1
 164 116 l 1,11,-1
 70 201 l 1,12,-1
 70 587 l 1,0,-1
141 574 m 1,13,-1
 141 233 l 1,14,-1
 188 187 l 1,15,-1
 337 187 l 1,16,-1
 383 234 l 1,17,-1
 383 575 l 1,18,-1
 336 621 l 1,19,-1
 188 621 l 1,20,-1
 141 574 l 1,13,-1
EndSplineSet
EndChar

StartChar: R
Encoding: 82 82 52
Width: 525
Flags: W
LayerCount: 2
Fore
SplineSet
356 679 m 1,0,-1
 450 591 l 1,1,-1
 450 482 l 1,2,-1
 397 434 l 5,3,-1
 397 414 l 5,4,-1
 450 366 l 1,5,-1
 450 108 l 1,6,-1
 378 108 l 1,7,-1
 378 340 l 1,8,-1
 332 388 l 1,9,-1
 146 388 l 1,10,-1
 146 108 l 1,11,-1
 74 108 l 1,12,-1
 74 679 l 1,13,-1
 356 679 l 1,0,-1
332 620 m 1,14,-1
 146 620 l 1,15,-1
 146 460 l 1,16,-1
 332 460 l 1,17,-1
 378 506 l 1,18,-1
 378 574 l 1,19,-1
 332 620 l 1,14,-1
EndSplineSet
Validated: 1
EndChar

StartChar: S
Encoding: 83 83 53
Width: 525
Flags: W
LayerCount: 2
Fore
SplineSet
480 597 m 1,0,-1
 480 530 l 1,1,-1
 408 530 l 1,2,-1
 408 574 l 1,3,-1
 362 617 l 1,4,-1
 163 617 l 1,5,-1
 117 574 l 1,6,-1
 117 510 l 1,7,-1
 163 464 l 1,8,-1
 386 464 l 1,9,-1
 480 370 l 1,10,-1
 480 204 l 1,11,-1
 386 110 l 1,12,-1
 139 110 l 1,13,-1
 45 204 l 1,14,-1
 45 276 l 1,15,-1
 117 276 l 1,16,-1
 117 228 l 1,17,-1
 163 182 l 1,18,-1
 362 182 l 1,19,-1
 408 228 l 1,20,-1
 408 344 l 1,21,-1
 362 390 l 1,22,-1
 139 390 l 1,23,-1
 45 486 l 5,24,-1
 45 596 l 1,25,-1
 139 685 l 1,26,-1
 386 685 l 1,27,-1
 480 597 l 1,0,-1
EndSplineSet
Validated: 1
EndChar

StartChar: T
Encoding: 84 84 54
Width: 525
Flags: W
LayerCount: 2
Fore
SplineSet
61 613 m 1,0,-1
 61 685 l 1,1,-1
 465 685 l 1,2,-1
 465 613 l 1,3,-1
 308 613 l 1,4,-1
 308 98 l 1,5,-1
 218 98 l 1,6,-1
 218 613 l 1,7,-1
 61 613 l 1,0,-1
EndSplineSet
Validated: 1
EndChar

StartChar: U
Encoding: 85 85 55
Width: 525
Flags: W
LayerCount: 2
Fore
SplineSet
74 107 m 1,0,-1
 74 680 l 5,1,-1
 146 680 l 5,2,-1
 146 179 l 1,3,-1
 378 179 l 1,4,-1
 378 680 l 5,5,-1
 450 680 l 5,6,-1
 450 107 l 1,7,-1
 74 107 l 1,0,-1
EndSplineSet
Validated: 1
EndChar

StartChar: V
Encoding: 86 86 56
Width: 525
Flags: W
LayerCount: 2
Fore
SplineSet
74 685 m 5,0,-1
 144 685 l 1,1,-1
 252 228 l 1,2,-1
 276 228 l 1,3,-1
 380 685 l 1,4,-1
 452 685 l 1,5,-1
 304 110 l 1,6,-1
 224 110 l 1,7,-1
 74 685 l 5,0,-1
EndSplineSet
Validated: 1
EndChar

StartChar: W
Encoding: 87 87 57
Width: 525
Flags: W
LayerCount: 2
Fore
SplineSet
26 155 m 1,0,-1
 26 680 l 1,1,-1
 98 680 l 1,2,-1
 98 180 l 1,3,-1
 170 180 l 1,4,-1
 224 226 l 1,5,-1
 224 403 l 1,6,-1
 304 403 l 1,7,-1
 304 226 l 1,8,-1
 356 180 l 1,9,-1
 426 180 l 1,10,-1
 426 680 l 1,11,-1
 498 680 l 1,12,-1
 498 155 l 1,13,-1
 452 108 l 1,14,-1
 328 108 l 1,15,-1
 276 153 l 5,16,-1
 252 153 l 5,17,-1
 198 108 l 1,18,-1
 74 108 l 1,19,-1
 26 155 l 1,0,-1
EndSplineSet
Validated: 1
EndChar

StartChar: X
Encoding: 88 88 58
Width: 525
Flags: W
LayerCount: 2
Fore
SplineSet
74 685 m 1,0,-1
 146 685 l 1,1,-1
 260 444 l 1,2,-1
 261 444 l 1,3,-1
 378 685 l 1,4,-1
 450 685 l 1,5,-1
 450 615 l 1,6,-1
 350 418 l 1,7,-1
 350 390 l 1,8,-1
 450 180 l 1,9,-1
 450 110 l 1,10,-1
 378 110 l 1,11,-1
 261 364 l 1,12,-1
 260 364 l 1,13,-1
 152 110 l 1,14,-1
 80 110 l 1,15,-1
 80 180 l 1,16,-1
 170 390 l 1,17,-1
 170 418 l 1,18,-1
 74 615 l 1,19,-1
 74 685 l 1,0,-1
EndSplineSet
Validated: 1
EndChar

StartChar: Y
Encoding: 89 89 59
Width: 525
Flags: W
LayerCount: 2
Fore
SplineSet
74 438 m 5,0,-1
 74 685 l 1,1,-1
 146 685 l 1,2,-1
 146 464 l 1,3,-1
 192 416 l 1,4,-1
 332 416 l 1,5,-1
 378 464 l 1,6,-1
 378 685 l 1,7,-1
 450 685 l 1,8,-1
 450 438 l 1,9,-1
 358 344 l 1,10,-1
 306 344 l 1,11,-1
 306 110 l 1,12,-1
 218 110 l 1,13,-1
 218 344 l 1,14,-1
 166 344 l 1,15,-1
 74 438 l 5,0,-1
EndSplineSet
Validated: 1
EndChar

StartChar: Z
Encoding: 90 90 60
Width: 525
Flags: W
LayerCount: 2
Fore
SplineSet
377 619 m 1,0,-1
 74 619 l 5,1,-1
 74 690 l 5,2,-1
 451 690 l 1,3,-1
 451 589 l 1,4,-1
 146 188 l 5,5,-1
 451 188 l 1,6,-1
 451 116 l 1,7,-1
 74 116 l 5,8,-1
 74 225 l 5,9,-1
 377 619 l 1,0,-1
EndSplineSet
Validated: 1
EndChar

StartChar: bracketleft
Encoding: 91 91 61
Width: 525
Flags: W
LayerCount: 2
Fore
SplineSet
180 62 m 1,0,-1
 180 738 l 1,1,-1
 346 738 l 1,2,-1
 346 668 l 1,3,-1
 252 668 l 1,4,-1
 252 134 l 5,5,-1
 346 134 l 1,6,-1
 346 62 l 1,7,-1
 180 62 l 1,0,-1
EndSplineSet
Validated: 1
EndChar

StartChar: backslash
Encoding: 92 92 62
Width: 525
Flags: W
LayerCount: 2
Fore
SplineSet
110 574 m 5,0,-1
 110 692 l 1,1,-1
 182 692 l 1,2,-1
 228 600 l 1,3,-1
 274 506 l 1,4,-1
 322 412 l 1,5,-1
 368 320 l 1,6,-1
 414 226 l 1,7,-1
 414 108 l 1,8,-1
 342 108 l 1,9,-1
 296 202 l 1,10,-1
 250 294 l 1,11,-1
 204 388 l 1,12,-1
 156 482 l 1,13,-1
 110 574 l 5,0,-1
EndSplineSet
Validated: 1
EndChar

StartChar: bracketright
Encoding: 93 93 63
Width: 525
Flags: W
LayerCount: 2
Fore
SplineSet
180 668 m 1,0,-1
 180 738 l 1,1,-1
 346 738 l 1,2,-1
 346 62 l 1,3,-1
 180 62 l 1,4,-1
 180 134 l 1,5,-1
 274 134 l 5,6,-1
 274 668 l 1,7,-1
 180 668 l 1,0,-1
EndSplineSet
Validated: 1
EndChar

StartChar: asciicircum
Encoding: 94 94 64
Width: 525
Flags: W
LayerCount: 2
Fore
SplineSet
438 482 m 1,0,-1
 368 482 l 1,1,-1
 274 620 l 1,2,-1
 252 620 l 1,3,-1
 158 482 l 1,4,-1
 88 482 l 1,5,-1
 226 692 l 1,6,-1
 298 692 l 1,7,-1
 438 482 l 1,0,-1
EndSplineSet
Validated: 1
EndChar

StartChar: underscore
Encoding: 95 95 65
Width: 525
Flags: W
LayerCount: 2
Fore
SplineSet
64 62 m 1,0,-1
 64 134 l 1,1,-1
 462 134 l 1,2,-1
 462 62 l 1,3,-1
 64 62 l 1,0,-1
EndSplineSet
Validated: 1
EndChar

StartChar: grave
Encoding: 96 96 66
Width: 525
Flags: W
LayerCount: 2
Fore
SplineSet
204 580 m 5,0,-1
 204 652 l 1,1,-1
 274 652 l 1,2,-1
 322 604 l 1,3,-1
 322 534 l 1,4,-1
 250 534 l 1,5,-1
 204 580 l 5,0,-1
EndSplineSet
Validated: 1
EndChar

StartChar: a
Encoding: 97 97 67
Width: 525
Flags: W
LayerCount: 2
Fore
SplineSet
168 382 m 1,0,-1
 168 186 l 1,1,-1
 235 186 l 1,2,-1
 355 276 l 1,3,-1
 355 382 l 1,4,-1
 168 382 l 1,0,-1
144 114 m 1,5,-1
 98 160 l 1,6,-1
 98 407 l 1,7,-1
 144 453 l 1,8,-1
 379 453 l 1,9,-1
 427 407 l 1,10,-1
 427 114 l 1,11,-1
 355 114 l 1,12,-1
 355 187 l 1,13,-1
 261 114 l 1,14,-1
 144 114 l 1,5,-1
EndSplineSet
Validated: 1
EndChar

StartChar: b
Encoding: 98 98 68
Width: 525
Flags: W
LayerCount: 2
Fore
SplineSet
378 186 m 1,0,-1
 378 394 l 1,1,-1
 192 394 l 1,2,-1
 144 346 l 1,3,-1
 144 186 l 1,4,-1
 378 186 l 1,0,-1
402 453 m 1,5,-1
 450 408 l 1,6,-1
 450 160 l 1,7,-1
 402 114 l 1,8,-1
 120 114 l 1,9,-1
 74 160 l 1,10,-1
 74 639 l 1,11,-1
 144 639 l 1,12,-1
 144 435 l 5,13,-1
 166 453 l 1,14,-1
 402 453 l 1,5,-1
EndSplineSet
Validated: 1
EndChar

StartChar: c
Encoding: 99 99 69
Width: 525
Flags: W
LayerCount: 2
Fore
SplineSet
358 334 m 1,0,-1
 358 382 l 1,1,-1
 165 382 l 1,2,-1
 165 186 l 1,3,-1
 358 186 l 1,4,-1
 358 232 l 1,5,-1
 430 232 l 1,6,-1
 430 160 l 1,7,-1
 382 114 l 1,8,-1
 141 114 l 1,9,-1
 95 160 l 1,10,-1
 95 407 l 1,11,-1
 141 453 l 1,12,-1
 382 453 l 1,13,-1
 430 411 l 1,14,-1
 430 334 l 1,15,-1
 358 334 l 1,0,-1
EndSplineSet
Validated: 1
EndChar

StartChar: d
Encoding: 100 100 70
Width: 525
Flags: W
LayerCount: 2
Fore
SplineSet
146 186 m 1,0,-1
 378 186 l 1,1,-1
 378 348 l 1,2,-1
 332 394 l 1,3,-1
 146 394 l 1,4,-1
 146 186 l 1,0,-1
450 160 m 1,5,-1
 404 114 l 1,6,-1
 120 114 l 1,7,-1
 74 160 l 1,8,-1
 74 407 l 1,9,-1
 120 453 l 1,10,-1
 356 453 l 1,11,-1
 378 431 l 5,12,-1
 378 639 l 1,13,-1
 450 639 l 1,14,-1
 450 160 l 1,5,-1
EndSplineSet
Validated: 1
EndChar

StartChar: e
Encoding: 101 101 71
Width: 525
Flags: W
LayerCount: 2
Fore
SplineSet
90 408 m 1,0,-1
 136 453 l 1,1,-1
 387 453 l 1,2,-1
 435 410 l 1,3,-1
 435 300 l 1,4,-1
 387 254 l 1,5,-1
 160 254 l 1,6,-1
 160 186 l 1,7,-1
 363 186 l 1,8,-1
 363 232 l 1,9,-1
 435 232 l 1,10,-1
 435 160 l 1,11,-1
 387 114 l 1,12,-1
 136 114 l 1,13,-1
 90 160 l 5,14,-1
 90 408 l 1,0,-1
363 394 m 1,15,-1
 160 394 l 1,16,-1
 160 326 l 1,17,-1
 363 326 l 1,18,-1
 363 394 l 1,15,-1
EndSplineSet
Validated: 1
EndChar

StartChar: f
Encoding: 102 102 72
Width: 525
Flags: W
LayerCount: 2
Fore
SplineSet
202 592 m 1,0,-1
 250 639 l 5,1,-1
 405 639 l 1,2,-1
 405 567 l 1,3,-1
 274 567 l 1,4,-1
 274 453 l 1,5,-1
 405 453 l 1,6,-1
 405 382 l 1,7,-1
 274 382 l 1,8,-1
 274 114 l 1,9,-1
 202 114 l 1,10,-1
 202 382 l 1,11,-1
 120 382 l 1,12,-1
 120 453 l 1,13,-1
 202 453 l 1,14,-1
 202 592 l 1,0,-1
EndSplineSet
Validated: 1
EndChar

StartChar: g
Encoding: 103 103 73
Width: 525
Flags: W
LayerCount: 2
Fore
SplineSet
342 179 m 5,0,-1
 320 160 l 1,1,-1
 156 160 l 1,2,-1
 110 208 l 1,3,-1
 110 407 l 1,4,-1
 156 453 l 1,5,-1
 366 453 l 1,6,-1
 414 407 l 1,7,-1
 414 34 l 1,8,-1
 366 -12 l 1,9,-1
 156 -12 l 1,10,-1
 110 34 l 1,11,-1
 110 105 l 1,12,-1
 180 105 l 1,13,-1
 180 59 l 1,14,-1
 342 59 l 1,15,-1
 342 179 l 5,0,-1
180 232 m 1,16,-1
 296 232 l 1,17,-1
 342 278 l 1,18,-1
 342 382 l 1,19,-1
 180 382 l 1,20,-1
 180 232 l 1,16,-1
EndSplineSet
Validated: 1
EndChar

StartChar: h
Encoding: 104 104 74
Width: 525
Flags: W
LayerCount: 2
Fore
SplineSet
-289 461 m 1049,0,-1
435 411 m 1,1,-1
 435 114 l 1,2,-1
 363 114 l 1,3,-1
 363 368 l 1,4,-1
 196 368 l 1,5,-1
 159 333 l 5,6,-1
 159 114 l 1,7,-1
 90 114 l 1,8,-1
 90 639 l 1,9,-1
 148 639 l 1,10,-1
 148 426 l 1,11,-1
 170 448 l 1,12,-1
 404 448 l 1,13,-1
 435 411 l 1,1,-1
EndSplineSet
Validated: 1
EndChar

StartChar: i
Encoding: 105 105 75
Width: 525
Flags: W
LayerCount: 2
Fore
SplineSet
253 114 m 1,0,-1
 128 114 l 1,1,-1
 128 184 l 1,2,-1
 253 184 l 1,3,-1
 253 383 l 5,4,-1
 218 383 l 5,5,-1
 161 383 l 5,6,-1
 161 453 l 1,7,-1
 218 453 l 1,8,-1
 253 453 l 1,9,-1
 323 453 l 1,10,-1
 323 184 l 1,11,-1
 423 184 l 1,12,-1
 423 114 l 1,13,-1
 323 114 l 1,14,-1
 253 114 l 1,0,-1
253 521 m 1,15,-1
 253 639 l 1,16,-1
 323 639 l 1,17,-1
 323 521 l 1,18,-1
 253 521 l 1,15,-1
EndSplineSet
Validated: 1
EndChar

StartChar: j
Encoding: 106 106 76
Width: 525
Flags: W
LayerCount: 2
Fore
SplineSet
322 521 m 1,0,-1
 322 639 l 1,1,-1
 392 639 l 1,2,-1
 392 521 l 1,3,-1
 322 521 l 1,0,-1
180 -12 m 1,4,-1
 134 34 l 1,5,-1
 134 152 l 1,6,-1
 206 152 l 1,7,-1
 206 59 l 1,8,-1
 322 59 l 1,9,-1
 322 453 l 1,10,-1
 392 453 l 1,11,-1
 392 34 l 1,12,-1
 346 -12 l 5,13,-1
 180 -12 l 1,4,-1
EndSplineSet
Validated: 1
EndChar

StartChar: k
Encoding: 107 107 77
Width: 525
Flags: W
LayerCount: 2
Fore
SplineSet
134 114 m 1,0,-1
 134 639 l 1,1,-1
 206 639 l 1,2,-1
 206 428 l 1,3,-1
 392 486 l 1,4,-1
 392 416 l 1,5,-1
 300 388 l 1,6,-1
 392 114 l 1,7,-1
 322 114 l 1,8,-1
 228 346 l 1,9,-1
 206 346 l 1,10,-1
 206 114 l 1,11,-1
 134 114 l 1,0,-1
EndSplineSet
Validated: 1
EndChar

StartChar: l
Encoding: 108 108 78
Width: 525
Flags: W
LayerCount: 2
Fore
SplineSet
136 567 m 1,0,-1
 136 639 l 1,1,-1
 274 639 l 1,2,-1
 274 186 l 1,3,-1
 388 232 l 1,4,-1
 388 160 l 1,5,-1
 274 114 l 1,6,-1
 202 114 l 1,7,-1
 202 567 l 1,8,-1
 136 567 l 1,0,-1
EndSplineSet
Validated: 1
EndChar

StartChar: m
Encoding: 109 109 79
Width: 525
Flags: W
LayerCount: 2
Fore
SplineSet
455 459 m 5,0,-1
 490 424 l 1,1,-1
 490 108 l 1,2,-1
 420 108 l 1,3,-1
 420 389 l 1,4,-1
 304 389 l 1,5,-1
 304 108 l 1,6,-1
 224 108 l 1,7,-1
 224 389 l 1,8,-1
 105 389 l 1,9,-1
 105 108 l 1,10,-1
 35 108 l 1,11,-1
 35 424 l 1,12,-1
 70 459 l 1,13,-1
 455 459 l 5,0,-1
EndSplineSet
Validated: 1
EndChar

StartChar: n
Encoding: 110 110 80
Width: 525
Flags: W
LayerCount: 2
Fore
SplineSet
90 411 m 1,0,-1
 125 446 l 1,1,-1
 400 446 l 1,2,-1
 435 411 l 1,3,-1
 435 114 l 1,4,-1
 363 114 l 5,5,-1
 363 368 l 1,6,-1
 160 368 l 1,7,-1
 160 114 l 1,8,-1
 90 114 l 1,9,-1
 90 411 l 1,0,-1
EndSplineSet
Validated: 1
EndChar

StartChar: o
Encoding: 111 111 81
Width: 525
Flags: W
LayerCount: 2
Fore
SplineSet
160 375 m 1,0,-1
 160 180 l 1,1,-1
 363 180 l 1,2,-1
 363 375 l 1,3,-1
 160 375 l 1,0,-1
136 108 m 1,4,-1
 90 156 l 1,5,-1
 90 400 l 1,6,-1
 136 446 l 1,7,-1
 387 446 l 1,8,-1
 435 400 l 1,9,-1
 435 156 l 1,10,-1
 387 108 l 5,11,-1
 136 108 l 1,4,-1
EndSplineSet
Validated: 1
EndChar

StartChar: p
Encoding: 112 112 82
Width: 525
Flags: W
LayerCount: 2
Fore
SplineSet
180 180 m 1,0,-1
 342 180 l 1,1,-1
 342 375 l 1,2,-1
 180 375 l 1,3,-1
 180 180 l 1,0,-1
414 156 m 1,4,-1
 366 108 l 1,5,-1
 180 108 l 1,6,-1
 180 -18 l 1,7,-1
 110 -18 l 1,8,-1
 110 400 l 1,9,-1
 156 446 l 1,10,-1
 366 446 l 1,11,-1
 414 400 l 5,12,-1
 414 156 l 1,4,-1
EndSplineSet
Validated: 1
EndChar

StartChar: q
Encoding: 113 113 83
Width: 525
Flags: W
LayerCount: 2
Fore
SplineSet
96 108 m 1,0,-1
 50 156 l 1,1,-1
 50 400 l 1,2,-1
 96 446 l 1,3,-1
 332 446 l 1,4,-1
 380 400 l 1,5,-1
 380 53 l 5,6,-1
 402 53 l 1,7,-1
 402 100 l 1,8,-1
 474 100 l 1,9,-1
 474 28 l 1,10,-1
 426 -18 l 1,11,-1
 302 -18 l 1,12,-1
 302 108 l 1,13,-1
 96 108 l 1,0,-1
122 180 m 1,14,-1
 302 180 l 1,15,-1
 302 375 l 1,16,-1
 122 375 l 1,17,-1
 122 180 l 1,14,-1
EndSplineSet
Validated: 1
EndChar

StartChar: r
Encoding: 114 114 84
Width: 525
Flags: W
LayerCount: 2
Fore
SplineSet
85 400 m 1,0,-1
 131 446 l 1,1,-1
 392 446 l 1,2,-1
 440 400 l 5,3,-1
 440 328 l 1,4,-1
 368 328 l 1,5,-1
 368 375 l 1,6,-1
 155 375 l 1,7,-1
 155 115 l 1,8,-1
 85 115 l 1,9,-1
 85 400 l 1,0,-1
EndSplineSet
Validated: 1
EndChar

StartChar: s
Encoding: 115 115 85
Width: 525
Flags: W
LayerCount: 2
Fore
SplineSet
93 290 m 1,0,-1
 93 418 l 1,1,-1
 127 453 l 1,2,-1
 432 453 l 1,3,-1
 432 393 l 1,4,-1
 153 393 l 1,5,-1
 153 315 l 1,6,-1
 396 315 l 1,7,-1
 432 280 l 1,8,-1
 432 149 l 1,9,-1
 396 114 l 1,10,-1
 93 114 l 1,11,-1
 93 174 l 1,12,-1
 372 174 l 1,13,-1
 372 255 l 1,14,-1
 127 255 l 1,15,-1
 93 290 l 1,0,-1
EndSplineSet
Validated: 1
EndChar

StartChar: t
Encoding: 116 116 86
Width: 525
Flags: W
LayerCount: 2
Fore
SplineSet
94 453 m 1,0,-1
 227 453 l 1,1,-1
 227 567 l 1,2,-1
 297 567 l 1,3,-1
 297 453 l 1,4,-1
 429 453 l 1,5,-1
 429 382 l 1,6,-1
 297 382 l 1,7,-1
 297 186 l 1,8,-1
 359 186 l 1,9,-1
 359 232 l 1,10,-1
 431 232 l 1,11,-1
 431 155 l 1,12,-1
 383 114 l 5,13,-1
 227 114 l 1,14,-1
 227 382 l 1,15,-1
 94 382 l 1,16,-1
 94 453 l 1,0,-1
EndSplineSet
Validated: 1
EndChar

StartChar: u
Encoding: 117 117 87
Width: 525
Flags: W
LayerCount: 2
Fore
SplineSet
95 150 m 5,0,-1
 95 441 l 1,1,-1
 165 441 l 1,2,-1
 165 174 l 1,3,-1
 358 174 l 1,4,-1
 358 441 l 1,5,-1
 430 441 l 1,6,-1
 430 150 l 1,7,-1
 382 102 l 1,8,-1
 141 102 l 1,9,-1
 95 150 l 5,0,-1
EndSplineSet
Validated: 1
EndChar

StartChar: v
Encoding: 118 118 88
Width: 525
Flags: W
LayerCount: 2
Fore
SplineSet
74 374 m 1,0,-1
 74 441 l 1,1,-1
 146 441 l 1,2,-1
 248 220 l 1,3,-1
 276 220 l 1,4,-1
 378 441 l 1,5,-1
 450 441 l 1,6,-1
 450 374 l 1,7,-1
 356 196 l 1,8,-1
 308 102 l 1,9,-1
 218 102 l 1,10,-1
 168 196 l 1,11,-1
 74 374 l 1,0,-1
EndSplineSet
Validated: 1
EndChar

StartChar: w
Encoding: 119 119 89
Width: 525
Flags: W
LayerCount: 2
Fore
SplineSet
68 138 m 1,0,-1
 68 442 l 1,1,-1
 138 442 l 1,2,-1
 138 175 l 1,3,-1
 221 175 l 1,4,-1
 221 442 l 1,5,-1
 292 442 l 1,6,-1
 292 175 l 1,7,-1
 375 175 l 1,8,-1
 375 442 l 1,9,-1
 445 442 l 1,10,-1
 445 138 l 1,11,-1
 411 103 l 1,12,-1
 102 103 l 1,13,-1
 68 138 l 1,0,-1
EndSplineSet
Validated: 1
EndChar

StartChar: x
Encoding: 120 120 90
Width: 525
Flags: W
LayerCount: 2
Fore
SplineSet
75 441 m 1,0,-1
 145 441 l 1,1,-1
 262 316 l 1,2,-1
 380 441 l 1,3,-1
 450 441 l 1,4,-1
 450 371 l 1,5,-1
 342 279 l 1,6,-1
 450 172 l 5,7,-1
 450 102 l 1,8,-1
 379 102 l 1,9,-1
 262 230 l 1,10,-1
 145 102 l 1,11,-1
 75 102 l 1,12,-1
 75 172 l 1,13,-1
 191 279 l 1,14,-1
 75 371 l 1,15,-1
 75 441 l 1,0,-1
EndSplineSet
Validated: 1
EndChar

StartChar: y
Encoding: 121 121 91
Width: 525
Flags: W
LayerCount: 2
Fore
SplineSet
110 150 m 1,0,-1
 110 441 l 1,1,-1
 180 441 l 1,2,-1
 180 174 l 1,3,-1
 342 174 l 1,4,-1
 342 441 l 1,5,-1
 414 441 l 1,6,-1
 414 23 l 1,7,-1
 366 -25 l 1,8,-1
 156 -25 l 1,9,-1
 110 23 l 5,10,-1
 110 94 l 1,11,-1
 180 94 l 1,12,-1
 180 48 l 1,13,-1
 342 48 l 1,14,-1
 342 102 l 1,15,-1
 156 102 l 1,16,-1
 110 150 l 1,0,-1
EndSplineSet
Validated: 1
EndChar

StartChar: z
Encoding: 122 122 92
Width: 525
Flags: W
LayerCount: 2
Fore
SplineSet
110 375 m 1,0,-1
 110 446 l 1,1,-1
 414 446 l 1,2,-1
 414 337 l 1,3,-1
 180 180 l 5,4,-1
 414 180 l 1,5,-1
 414 108 l 1,6,-1
 110 108 l 1,7,-1
 110 226 l 1,8,-1
 342 375 l 1,9,-1
 110 375 l 1,0,-1
EndSplineSet
Validated: 1
EndChar

StartChar: braceleft
Encoding: 123 123 93
Width: 525
Flags: W
LayerCount: 2
Fore
SplineSet
228 62 m 1,0,-1
 228 248 l 1,1,-1
 180 248 l 1,2,-1
 134 294 l 1,3,-1
 134 412 l 1,4,-1
 180 458 l 1,5,-1
 228 458 l 1,6,-1
 228 646 l 1,7,-1
 274 692 l 1,8,-1
 392 692 l 1,9,-1
 392 620 l 1,10,-1
 298 620 l 1,11,-1
 298 388 l 1,12,-1
 204 388 l 1,13,-1
 204 320 l 1,14,-1
 298 320 l 1,15,-1
 298 88 l 1,16,-1
 392 88 l 1,17,-1
 392 16 l 1,18,-1
 274 16 l 1,19,-1
 228 62 l 1,0,-1
EndSplineSet
Validated: 1
EndChar

StartChar: bar
Encoding: 124 124 94
Width: 525
Flags: W
LayerCount: 2
Fore
SplineSet
226 12 m 1,0,-1
 226 692 l 1,1,-1
 298 692 l 1,2,-1
 298 12 l 1,3,-1
 226 12 l 1,0,-1
EndSplineSet
Validated: 1
EndChar

StartChar: braceright
Encoding: 125 125 95
Width: 525
Flags: W
LayerCount: 2
Fore
SplineSet
132 620 m 1,0,-1
 132 692 l 1,1,-1
 252 692 l 1,2,-1
 298 644 l 1,3,-1
 298 456 l 1,4,-1
 346 456 l 1,5,-1
 392 410 l 1,6,-1
 392 292 l 1,7,-1
 346 244 l 1,8,-1
 298 244 l 1,9,-1
 298 58 l 1,10,-1
 252 12 l 1,11,-1
 132 12 l 1,12,-1
 132 84 l 1,13,-1
 226 84 l 1,14,-1
 226 316 l 1,15,-1
 320 316 l 1,16,-1
 320 386 l 1,17,-1
 226 386 l 1,18,-1
 226 620 l 1,19,-1
 132 620 l 1,0,-1
EndSplineSet
Validated: 1
EndChar

StartChar: asciitilde
Encoding: 126 126 96
Width: 525
Flags: W
LayerCount: 2
Fore
SplineSet
106 418 m 1,0,-1
 246 418 l 1,1,-1
 316 383 l 1,2,-1
 316 348 l 1,3,-1
 386 348 l 1,4,-1
 490 383 l 1,5,-1
 490 313 l 1,6,-1
 420 278 l 1,7,-1
 280 278 l 1,8,-1
 210 313 l 1,9,-1
 210 348 l 1,10,-1
 140 348 l 1,11,-1
 36 313 l 5,12,-1
 36 383 l 1,13,-1
 106 418 l 1,0,-1
EndSplineSet
Validated: 1
EndChar

StartChar: emdash
Encoding: 8212 8212 98
Width: 550
Flags: W
LayerCount: 2
Fore
SplineSet
30 384 m 1,0,-1
 520 384 l 1,1,-1
 520 313 l 1,2,-1
 30 313 l 1,3,-1
 30 384 l 1,0,-1
EndSplineSet
Validated: 1
EndChar
